<?xml version="1.0" encoding="UTF-8"?><svg id="a" xmlns="http://www.w3.org/2000/svg" viewBox="0 0 160.33 158.64"><path d="m59.61,53.87v-6.68h2.52v-2.82h1.22c.7-2.88,3.37-10.25,12.48-11.8.03-1.25.28-3.06,1.33-4.17.59-.63,1.38-.96,2.28-.96s1.68.33,2.28.96c1.06,1.12,1.31,2.95,1.34,4.21,8.82,1.64,11.36,8.9,12.03,11.75h1.57v2.82h2.46v6.68h-39.5Z" fill="#0e103d"/><path d="m95.65,48.19v-2.82h-1.38c-.3-1.81-2.28-10.54-12.22-11.91.05-.94.11-5.02-2.6-5.02s-2.65,4.02-2.6,4.99c-10.35,1.27-12.4,10.36-12.68,11.94h-1.03v2.82h-2.52v4.68h37.5v-4.68h-2.46Z" fill="#0e103d"/><rect x="135.08" y="40.87" width="4.74" height="29.82" transform="translate(193.23 -81.66) rotate(90)" fill="#0e103d"/><rect x="124.04" y="54.79" width="26.82" height="1.98" fill="#ffcc2e"/><rect x="121.74" y="58.09" width="34.07" height="31.27" transform="translate(212.5 -65.04) rotate(90)" fill="#0e103d"/><rect x="125.14" y="58.26" width="27.27" height="31.26" fill="#fff"/><rect x="137.83" y="75.69" width="4.74" height="32.31" transform="translate(232.05 -48.36) rotate(90)" fill="#0e103d"/><rect x="125.67" y="90.85" width="29.06" height="1.98" fill="#ffcc2e"/><rect x="127.39" y="59.17" width="4.44" height="7.68" fill="#0e103d"/><rect x="136.15" y="59.17" width="4.44" height="7.68" fill="#0e103d"/><rect x="144.67" y="59.17" width="4.44" height="7.68" fill="#0e103d"/><rect x="127.39" y="69.85" width="4.44" height="7.68" fill="#0e103d"/><rect x="136.15" y="69.85" width="4.44" height="7.68" fill="#0e103d"/><rect x="144.67" y="69.85" width="4.44" height="7.68" fill="#0e103d"/><rect x="127.39" y="81.19" width="4.44" height="7.68" fill="#0e103d"/><rect x="136.15" y="81.19" width="4.44" height="7.68" fill="#0e103d"/><rect x="144.67" y="81.19" width="4.44" height="7.68" fill="#0e103d"/><rect x="19" y="40.87" width="4.74" height="29.82" transform="translate(77.15 34.42) rotate(90)" fill="#0e103d"/><rect x="7.96" y="54.79" width="26.82" height="1.98" fill="#ffcc2e"/><rect x="3.66" y="58.09" width="34.07" height="31.27" transform="translate(94.42 53.04) rotate(90)" fill="#0e103d"/><rect x="7.06" y="58.26" width="27.27" height="31.26" fill="#fff"/><rect x="17.75" y="75.69" width="4.74" height="32.31" transform="translate(111.97 71.72) rotate(90)" fill="#0e103d"/><rect x="5.59" y="90.85" width="29.06" height="1.98" fill="#ffcc2e"/><rect x="64.12" y="46.2" width="30.38" height="1.84" fill="#fff"/><rect x="61.37" y="48.99" width="35.78" height="3.1" fill="#fff"/><path d="m65.34,45.21c.74-3.07,3.65-10.93,13.99-10.93s13.1,7.94,13.79,11.02l-27.77-.09Z" fill="#fff"/><path d="m77.83,33.27c.03-1.12.2-2.65.77-3.4.22-.29.48-.42.84-.42s.62.13.84.42c.58.75.74,2.29.77,3.42l-3.22-.02Z" fill="#fff"/><rect x="46.51" y="38.47" width="5.16" height="29.82" transform="translate(102.47 4.29) rotate(90)" fill="#0e103d"/><rect x="35.68" y="52.3" width="26.82" height="2.16" fill="#ffcc2e"/><rect x="76.88" y="38.01" width="5.16" height="34.11" transform="translate(134.53 -24.4) rotate(90)" fill="#0e103d"/><rect x="64.05" y="53.98" width="30.1" height="2.16" fill="#ffcc2e"/><rect x="106.81" y="38.65" width="5.7" height="30" transform="translate(163.31 -56.01) rotate(90)" fill="#0e103d"/><rect x="96.16" y="52.3" width="27" height="2.7" fill="#ffcc2e"/><rect x="63.76" y="57.25" width="31.05" height="35.82" fill="#fff"/><rect x="29.87" y="57.28" width="37.08" height="31.27" transform="translate(121.33 24.5) rotate(90)" fill="#0e103d"/><rect x="34.78" y="56.08" width="27.27" height="34.02" fill="#fff"/><rect x="91.45" y="57.11" width="36.69" height="31.27" transform="translate(182.54 -37.05) rotate(90)" fill="#0e103d"/><rect x="96.16" y="56.08" width="27.27" height="34.02" fill="#fff"/><rect x="37.51" y="59.17" width="4.44" height="7.68" fill="#0e103d"/><rect x="46.27" y="59.17" width="4.44" height="7.68" fill="#0e103d"/><rect x="45.26" y="76.47" width="5.16" height="32.31" transform="translate(140.47 44.78) rotate(90)" fill="#0e103d"/><rect x="33.31" y="91.54" width="29.06" height="2.16" fill="#ffcc2e"/><rect x="107.78" y="76.47" width="5.16" height="32.31" transform="translate(202.99 -17.74) rotate(90)" fill="#0e103d"/><rect x="95.83" y="91.54" width="29.06" height="2.16" fill="#ffcc2e"/><rect x="54.79" y="59.17" width="4.44" height="7.68" fill="#0e103d"/><rect x="68.74" y="59.17" width="4.44" height="7.68" fill="#0e103d"/><rect x="77.5" y="59.17" width="4.44" height="7.68" fill="#0e103d"/><rect x="86.02" y="59.17" width="4.44" height="7.68" fill="#0e103d"/><rect x="37.51" y="69.85" width="4.44" height="7.68" fill="#0e103d"/><rect x="46.27" y="69.85" width="4.44" height="7.68" fill="#0e103d"/><rect x="54.79" y="69.85" width="4.44" height="7.68" fill="#0e103d"/><rect x="37.51" y="81.19" width="4.44" height="7.68" fill="#0e103d"/><rect x="46.27" y="81.19" width="4.44" height="7.68" fill="#0e103d"/><rect x="54.79" y="81.19" width="4.44" height="7.68" fill="#0e103d"/><rect x="9.31" y="59.17" width="4.44" height="7.68" fill="#0e103d"/><rect x="18.07" y="59.17" width="4.44" height="7.68" fill="#0e103d"/><rect x="26.59" y="59.17" width="4.44" height="7.68" fill="#0e103d"/><rect x="9.31" y="69.85" width="4.44" height="7.68" fill="#0e103d"/><rect x="18.07" y="69.85" width="4.44" height="7.68" fill="#0e103d"/><rect x="26.59" y="69.85" width="4.44" height="7.68" fill="#0e103d"/><rect x="9.31" y="81.19" width="4.44" height="7.68" fill="#0e103d"/><rect x="18.07" y="81.19" width="4.44" height="7.68" fill="#0e103d"/><rect x="26.59" y="81.19" width="4.44" height="7.68" fill="#0e103d"/><rect x="98.89" y="59.17" width="4.44" height="7.68" fill="#0e103d"/><rect x="107.65" y="59.17" width="4.44" height="7.68" fill="#0e103d"/><rect x="116.17" y="59.17" width="4.44" height="7.68" fill="#0e103d"/><rect x="98.89" y="69.85" width="4.44" height="7.68" fill="#0e103d"/><rect x="107.65" y="69.85" width="4.44" height="7.68" fill="#0e103d"/><rect x="116.17" y="69.85" width="4.44" height="7.68" fill="#0e103d"/><rect x="98.89" y="81.19" width="4.44" height="7.68" fill="#0e103d"/><rect x="107.65" y="81.19" width="4.44" height="7.68" fill="#0e103d"/><rect x="116.17" y="81.19" width="4.44" height="7.68" fill="#0e103d"/><rect x="74.05" y="85.51" width="10.32" height="7.62" fill="#0e103d"/><rect x="30.91" y="54.37" width="3.11" height="2.48" fill="#0e103d"/><rect x="124.42" y="54.4" width="3.1" height="2.48" fill="#0e103d"/><rect x="63.67" y="55.9" width="31.59" height="1.44" fill="#0e103d"/><rect x="63.76" y="66.43" width="31.59" height=".81" fill="#0e103d"/><rect x="63.76" y="71.16" width="31.59" height=".81" fill="#0e103d"/><rect x="66.37" y="71.77" width=".6" height="21.36" fill="#0e103d"/><rect x="71.74" y="71.77" width=".6" height="21.36" fill="#0e103d"/><rect x="69.04" y="71.77" width=".6" height="21.36" fill="#0e103d"/><rect x="86.23" y="71.77" width=".6" height="21.36" fill="#0e103d"/><rect x="91.6" y="71.77" width=".6" height="21.36" fill="#0e103d"/><rect x="88.9" y="71.77" width=".6" height="21.36" fill="#0e103d"/><rect x="63.76" y="92.98" width="31.23" height="1.41" fill="#0e103d"/><polygon points="26.78 115.04 26.78 108.15 24.14 111.55 22.78 111.55 20.16 108.04 20.16 115.04 15.31 115.04 15.31 99.37 19.56 99.37 23.52 104.62 27.36 99.37 31.62 99.37 31.62 115.04 26.78 115.04" fill="#0e103d"/><path d="m16.31,114.04v-13.67h2.75l5.12,6.79h-1.28l4.97-6.79h2.75v13.67h-2.84v-10.53l1.14.26-5.27,6.79h-.37l-5.08-6.79.95-.26v10.53h-2.84Z" fill="#fff"/><rect x="31.84" y="99.37" width="4.75" height="15.67" fill="#0e103d"/><path d="m32.84,103.12v-2.75h2.75v2.75h-2.75Zm0,10.92v-10.02h2.75v10.02h-2.75Z" fill="#fff"/><path d="m43.04,115.04v-6.85c0-.22-.04-.4-.11-.53-.06-.12-.15-.21-.26-.27-.12-.07-.27-.1-.46-.1s-.33.04-.46.11c-.12.07-.2.15-.26.27-.07.13-.11.31-.11.53v6.85h-4.75v-12.02h4.57v.1c.55-.21,1.15-.32,1.81-.32.93,0,1.76.2,2.48.6.73.41,1.31.98,1.71,1.71.4.72.6,1.55.6,2.48v7.44h-4.75Z" fill="#0e103d"/><path d="m37.61,114.04v-10.02h2.57v1.98l-.15-.44c.23-.6.61-1.04,1.13-1.33.52-.29,1.13-.43,1.83-.43.76,0,1.42.16,1.99.48.57.32,1.01.76,1.33,1.33.32.57.48,1.23.48,1.99v6.44h-2.75v-5.85c0-.39-.08-.73-.23-1.01-.15-.28-.37-.5-.64-.66-.28-.16-.6-.24-.96-.24s-.67.08-.95.24c-.28.16-.5.38-.65.66-.15.28-.23.62-.23,1.01v5.85h-2.75Z" fill="#fff"/><path d="m53.58,115.26c-1.16,0-2.23-.27-3.19-.8-.96-.53-1.74-1.28-2.31-2.21-.58-.94-.87-2.02-.87-3.21s.29-2.28.87-3.22c.57-.93,1.35-1.67,2.31-2.2.96-.53,2.04-.81,3.19-.81s2.23.27,3.19.81c.95.54,1.73,1.28,2.3,2.2.58.94.87,2.02.87,3.22s-.29,2.27-.87,3.21c-.57.93-1.35,1.68-2.3,2.21-.96.54-2.03.81-3.19.81Zm0-7.98c-.31,0-.57.07-.79.2-.23.14-.41.34-.54.59-.14.27-.21.58-.21.96s.07.7.21.97c.13.25.3.44.52.58.22.14.48.2.8.2s.57-.06.78-.2c.22-.14.39-.33.52-.58.14-.28.21-.59.21-.97s-.07-.69-.21-.96c-.13-.25-.31-.45-.53-.59-.21-.14-.46-.2-.77-.2Z" fill="#0e103d"/><path d="m53.58,114.26c-.99,0-1.89-.23-2.71-.68s-1.46-1.07-1.94-1.86c-.48-.79-.72-1.69-.72-2.69s.24-1.91.72-2.7,1.13-1.4,1.94-1.85c.81-.45,1.72-.68,2.71-.68s1.89.23,2.7.68c.81.45,1.45,1.07,1.94,1.85s.72,1.68.72,2.7-.24,1.9-.72,2.69c-.48.79-1.13,1.41-1.94,1.86-.81.45-1.71.68-2.7.68Zm0-2.48c.5,0,.94-.12,1.31-.35.37-.23.67-.56.88-.97.21-.42.32-.89.32-1.43s-.11-1.01-.32-1.42c-.21-.41-.51-.73-.88-.97-.37-.24-.81-.36-1.31-.36s-.94.12-1.32.36c-.38.24-.68.56-.89.97-.21.41-.32.88-.32,1.42s.11,1.02.32,1.43c.21.42.51.74.89.97.38.23.82.35,1.32.35Z" fill="#fff"/><path d="m59.55,115.04v-12.02h4.57v.19c.52-.2,1.09-.3,1.72-.3h1.59v4.39h-1.86c-.54,0-.79.19-.93.33-.08.08-.33.32-.33,1.02v6.39h-4.75Z" fill="#0e103d"/><path d="m60.55,114.04v-10.02h2.57v2.4l-.18-.35c.22-.84.58-1.42,1.09-1.72.51-.3,1.11-.45,1.81-.45h.59v2.39h-.86c-.67,0-1.22.2-1.63.61-.42.41-.62.99-.62,1.73v5.39h-2.75Z" fill="#fff"/><path d="m70.14,115.04v-15.67h6.25c1.08,0,2.06.2,2.92.58.9.41,1.62,1.03,2.14,1.84.52.81.78,1.8.78,2.94s-.27,2.1-.79,2.91c-.52.81-1.25,1.42-2.14,1.84-.86.4-1.83.6-2.91.6h-1.4v4.95h-4.84Zm6.27-9.43c.23,0,.43-.04.57-.12.13-.07.23-.16.3-.29.07-.13.11-.28.11-.47,0-.2-.04-.36-.11-.49-.07-.12-.17-.21-.3-.29-.15-.08-.34-.12-.57-.12h-1.42v1.76h1.42Z" fill="#0e103d"/><path d="m71.14,114.04v-13.67h5.25c.94,0,1.78.17,2.5.5.73.33,1.3.82,1.72,1.47.42.65.62,1.45.62,2.4s-.21,1.72-.63,2.37-1,1.14-1.72,1.48c-.73.34-1.56.5-2.49.5h-2.4v4.95h-2.84Zm2.84-7.43h2.42c.4,0,.75-.08,1.05-.24.29-.16.52-.38.69-.66.17-.28.25-.61.25-.97s-.08-.71-.25-.99c-.17-.28-.39-.5-.69-.66-.29-.16-.64-.24-1.05-.24h-2.42v3.76Z" fill="#fff"/><path d="m81.84,115.04v-12.02h4.57v.19c.52-.2,1.09-.3,1.72-.3h1.59v4.39h-1.86c-.54,0-.79.19-.93.33-.08.08-.33.32-.33,1.02v6.39h-4.75Z" fill="#0e103d"/><path d="m82.84,114.04v-10.02h2.57v2.4l-.18-.35c.22-.84.58-1.42,1.09-1.72.51-.3,1.11-.45,1.81-.45h.59v2.39h-.86c-.67,0-1.22.2-1.63.61-.42.41-.62.99-.62,1.73v5.39h-2.75Z" fill="#fff"/><path d="m94.9,115.26c-1.16,0-2.23-.27-3.19-.8-.96-.53-1.74-1.28-2.31-2.21-.58-.94-.87-2.02-.87-3.21s.29-2.28.87-3.22c.57-.93,1.35-1.67,2.31-2.2.96-.53,2.04-.81,3.19-.81s2.23.27,3.19.81c.95.54,1.73,1.28,2.3,2.2.58.94.87,2.02.87,3.22s-.29,2.27-.87,3.21c-.57.93-1.35,1.68-2.3,2.21-.96.54-2.03.81-3.19.81Zm0-7.98c-.31,0-.57.07-.79.2-.23.14-.41.34-.54.59-.14.27-.21.58-.21.96s.07.7.21.97c.13.25.3.44.52.58.22.14.48.2.8.2s.57-.06.78-.2c.22-.14.39-.33.52-.58.14-.28.21-.59.21-.97s-.07-.69-.21-.96c-.13-.25-.31-.45-.53-.59-.21-.14-.46-.2-.77-.2Z" fill="#0e103d"/><path d="m94.9,114.26c-.99,0-1.89-.23-2.71-.68s-1.46-1.07-1.94-1.86c-.48-.79-.72-1.69-.72-2.69s.24-1.91.72-2.7,1.13-1.4,1.94-1.85c.81-.45,1.72-.68,2.71-.68s1.89.23,2.7.68c.81.45,1.45,1.07,1.94,1.85s.72,1.68.72,2.7-.24,1.9-.72,2.69c-.48.79-1.13,1.41-1.94,1.86-.81.45-1.71.68-2.7.68Zm0-2.48c.5,0,.94-.12,1.31-.35.37-.23.67-.56.88-.97.21-.42.32-.89.32-1.43s-.11-1.01-.32-1.42c-.21-.41-.51-.73-.88-.97-.37-.24-.81-.36-1.31-.36s-.94.12-1.32.36c-.38.24-.68.56-.89.97-.21.41-.32.88-.32,1.42s.11,1.02.32,1.43c.21.42.51.74.89.97.38.23.82.35,1.32.35Z" fill="#fff"/><path d="m100.66,119.11c-.22,0-.43-.01-.64-.03-.22-.02-.4-.05-.54-.08l-.8-.16v-4.36l1.17.21c.15.03.3.04.45.04.42,0,.54-.09.54-.1,0-.01.04-.08.04-.22v-15.04h4.75v15.04c0,.95-.2,1.79-.6,2.5-.41.74-1.02,1.3-1.79,1.68-.73.35-1.59.53-2.57.53Z" fill="#0e103d"/><path d="m100.66,118.11c-.18,0-.36,0-.54-.03-.18-.02-.33-.04-.45-.06v-2.35c.21.04.42.06.62.06.53,0,.92-.11,1.18-.33.26-.22.39-.55.39-.99v-10.39h2.75v10.39c0,.78-.16,1.45-.47,2.01s-.76.98-1.36,1.27c-.59.29-1.31.43-2.14.43Zm1.21-14.99v-2.75h2.75v2.75h-2.75Z" fill="#fff"/><path d="m111.46,115.26c-1.24,0-2.35-.29-3.29-.85-.94-.56-1.67-1.33-2.18-2.28-.51-.94-.76-1.99-.76-3.12s.27-2.24.8-3.17c.53-.93,1.26-1.68,2.16-2.22.91-.54,1.95-.82,3.08-.82.92,0,1.76.15,2.49.45.74.31,1.38.74,1.9,1.3.51.55.9,1.19,1.17,1.9.26.7.39,1.47.39,2.28,0,.23-.01.45-.03.68-.03.27-.08.51-.16.73l-.24.66h-.84l1.09.52-.35.87c-.25.64-.66,1.2-1.2,1.67-.52.45-1.13.8-1.82,1.04-.68.24-1.43.36-2.22.36Zm-.52-4.46c.16.05.34.07.55.07s.39-.02.55-.07h-1.1Z" fill="#0e103d"/><path d="m111.46,114.26c-1.06,0-1.99-.24-2.77-.71-.78-.47-1.39-1.1-1.82-1.9-.43-.79-.64-1.68-.64-2.64s.22-1.9.67-2.68c.45-.78,1.05-1.4,1.81-1.85.76-.45,1.61-.68,2.57-.68.79,0,1.5.13,2.11.38.61.25,1.13.6,1.55,1.06.42.45.74.98.96,1.57s.33,1.24.33,1.94c0,.2,0,.39-.03.58-.02.19-.05.35-.1.49h-7.5v-2.02h5.94l-1.3.95c.12-.53.12-.99-.02-1.4-.13-.41-.37-.73-.71-.97-.34-.24-.75-.36-1.24-.36s-.89.12-1.23.35c-.34.23-.6.58-.77,1.03-.17.45-.24,1-.2,1.65-.05.56.02,1.06.2,1.49.18.43.46.76.84,1,.38.24.84.36,1.38.36.49,0,.91-.1,1.26-.29s.62-.46.82-.81l2.2,1.05c-.2.49-.5.92-.93,1.28-.42.37-.92.65-1.5.85-.58.2-1.21.3-1.89.3Z" fill="#fff"/><path d="m122.77,115.26c-1.17,0-2.25-.28-3.2-.82-.95-.54-1.71-1.3-2.27-2.24-.56-.95-.85-2.02-.85-3.19s.28-2.24.84-3.18c.55-.94,1.32-1.69,2.28-2.23.96-.54,2.03-.81,3.21-.81.87,0,1.7.15,2.45.46.76.31,1.42.74,1.97,1.3.56.57.97,1.25,1.21,2.03l.27.86-3.68,1.58,3.67,1.61-.27.85c-.23.74-.63,1.4-1.19,1.98-.55.56-1.21,1-1.97,1.32-.76.31-1.59.47-2.47.47Zm0-7.98c-.29,0-.53.06-.75.2-.22.14-.39.33-.52.58-.14.28-.21.59-.21.97s.07.7.21.97c.13.26.3.45.52.58.21.13.46.2.75.2.34,0,.61-.08.84-.25.24-.17.4-.4.5-.71l.27-.8-.27-.8c-.1-.31-.27-.53-.51-.7-.24-.17-.51-.25-.84-.25Z" fill="#0e103d"/><path d="m122.77,114.26c-1,0-1.91-.23-2.71-.69-.8-.46-1.44-1.09-1.91-1.88-.47-.79-.71-1.69-.71-2.68s.23-1.88.7-2.67c.46-.79,1.1-1.41,1.91-1.86.81-.45,1.71-.68,2.72-.68.75,0,1.44.13,2.07.39.64.26,1.18.61,1.63,1.07.45.46.78,1,.97,1.62l-2.39,1.03c-.17-.5-.46-.9-.87-1.19-.41-.29-.88-.44-1.42-.44-.48,0-.9.12-1.27.35-.37.23-.67.56-.88.97-.21.42-.32.89-.32,1.43s.11,1.02.32,1.43c.21.42.51.74.88.97.37.23.8.35,1.27.35.55,0,1.03-.15,1.43-.44.4-.29.69-.69.86-1.19l2.39,1.05c-.18.59-.5,1.11-.95,1.58-.45.47-1,.83-1.63,1.09-.64.26-1.33.39-2.09.39Z" fill="#fff"/><path d="m133.88,115.15c-1.48,0-2.66-.43-3.52-1.27-.86-.85-1.3-2.01-1.3-3.46v-3.02h-1.69v-4.39h1c.33,0,.51-.04.59-.12.05-.04.09-.18.09-.42v-1.73h4.75v2.27h2.35v4.39h-2.35v2.83c0,.24.04.34.06.38,0,.01.02.03.08.06.09.04.26.08.56.08.05,0,.11,0,.18-.01l1.46-.15v4.31l-.87.12c-.19.03-.41.05-.65.08-.27.03-.52.04-.77.04Z" fill="#0e103d"/><path d="m133.88,114.15c-1.21,0-2.15-.33-2.82-.98-.67-.65-1-1.57-1-2.74v-4.02h-1.69v-2.39h.09c.51,0,.91-.13,1.18-.39s.41-.64.41-1.16v-.73h2.75v2.27h2.35v2.39h-2.35v3.83c0,.34.06.63.18.85.12.23.31.39.57.5.26.11.57.17.95.17.09,0,.18,0,.29-.02.11-.01.23-.02.35-.04v2.33c-.18.02-.39.05-.62.07s-.45.04-.66.04Z" fill="#fff"/><path d="m140.71,115.26c-1.29,0-2.44-.32-3.41-.94-1.01-.64-1.7-1.53-2.07-2.63l-.28-.84,2.08-.98c-.17-.14-.32-.29-.46-.46-.6-.7-.9-1.54-.9-2.49,0-.83.22-1.56.65-2.2.42-.61,1.01-1.1,1.75-1.44.71-.32,1.51-.49,2.4-.49,1.16,0,2.21.28,3.1.84.93.58,1.6,1.4,1.98,2.44l.32.86-2.07.97c.33.21.62.46.87.74.61.68.91,1.52.91,2.49,0,.83-.22,1.57-.67,2.21-.43.61-1.02,1.09-1.75,1.43-.7.32-1.53.48-2.45.48Z" fill="#0e103d"/><path d="m140.71,114.26c-1.1,0-2.06-.26-2.87-.78s-1.37-1.22-1.66-2.1l2.02-.95c.26.54.61.96,1.05,1.27.44.31.93.46,1.47.46.39,0,.69-.08.9-.24.21-.16.31-.38.31-.66,0-.15-.04-.27-.11-.38-.07-.1-.18-.2-.33-.28-.15-.09-.33-.16-.55-.22l-1.71-.48c-.82-.23-1.45-.61-1.89-1.13s-.66-1.13-.66-1.84c0-.62.16-1.17.48-1.63s.76-.83,1.34-1.09c.58-.26,1.24-.39,1.98-.39.98,0,1.84.23,2.58.69.74.46,1.26,1.1,1.57,1.94l-2.04.95c-.15-.42-.41-.75-.8-1-.39-.25-.82-.38-1.31-.38-.35,0-.63.07-.83.22-.2.15-.3.35-.3.61,0,.13.04.26.11.37.07.11.19.21.36.29.17.09.37.17.61.24l1.6.48c.83.24,1.47.61,1.91,1.11s.66,1.1.66,1.83c0,.62-.16,1.17-.49,1.63-.32.47-.77.83-1.35,1.09-.58.26-1.25.39-2.04.39Z" fill="#fff"/></svg>